# xmcd
#
# Track frame offsets:
#	150
#	30802
#	54527
#	75215
#	96757
#	123730
#	140647
#	168985
#	201075
#	225400
#	246522
#	273312
#
# Disc length: 3869
#
# Revision: 3
# Processed by: cddbd v1.5.1PL0 Copyright (c) Steve Scherf et al.
# Submitted via: CDex 1.30Release
# Normalized: r2:TRMNUM
#
DISCID=980f1b0c
DTITLE=Etta James - Matriarch Of The Blues
DYEAR=2000
DGENRE=Blues
TTITLE0=Gotta Serve Somebody
TTITLE1=Don't Let My Baby Ride
TTITLE2=Rhymes
TTITLE3=Try A Little Tenderness
TTITLE4=Miss You
TTITLE5=Hawg For Ya
TTITLE6=You're Gonna Make Me Cry
TTITLE7=Walking The Back Streets
TTITLE8=Let's Straighten It Out
TTITLE9=Born On The Bayou
TTITLE10=Come Back Baby
TTITLE11=Hound Dog
EXTD=\n YEAR: 2000 ID3G:   0
EXTT0=
EXTT1=
EXTT2=
EXTT3=
EXTT4=
EXTT5=
EXTT6=
EXTT7=
EXTT8=
EXTT9=
EXTT10=
EXTT11=
PLAYORDER=
